<svg id="SvgjsSvg1234" width="288" height="288" xmlns="http://www.w3.org/2000/svg" version="1.1" xmlns:xlink="http://www.w3.org/1999/xlink" xmlns:svgjs="http://svgjs.com/svgjs"><defs id="SvgjsDefs1235"></defs><g id="SvgjsG1236"><svg xmlns="http://www.w3.org/2000/svg" xmlns:svgjs="http://svgjs.com/svgjs" xmlns:xlink="http://www.w3.org/1999/xlink" width="288" height="288"><svg xmlns="http://www.w3.org/2000/svg" xmlns:svgjs="http://svgjs.com/svgjs" xmlns:xlink="http://www.w3.org/1999/xlink" width="288" height="288"><svg xmlns="http://www.w3.org/2000/svg" xmlns:svgjs="http://svgjs.com/svgjs" xmlns:xlink="http://www.w3.org/1999/xlink" width="288" height="288"><svg xmlns="http://www.w3.org/2000/svg" width="288" height="288" enable-background="new 0 0 220 220" viewBox="0 0 220 220"><circle cx="110" cy="110" r="108.7" fill="#f5f5f5" class="colorfff svgShape colorf5f5f5"></circle><path fill="#4bb5b1" d="M98.6,148h6v2.5h-8.5l0,0C96.1,149.1,97.2,148,98.6,148z" class="color89d4f2 svgShape colorfea142 color2f89fc color89e2d6"></path><rect width="51.1" height="2.5" x="96.1" y="110.6" fill="#4bb5b1" class="color89d4f2 svgShape colorfea142 color2f89fc color89e2d6"></rect><rect width="51.1" height="2.5" x="96.1" y="103.1" fill="#4bb5b1" class="color89d4f2 svgShape colorfea142 color2f89fc color89e2d6"></rect><path fill="#4bb5b1" d="M96.1 118.1h34.1v0c0 1.4-1.1 2.5-2.5 2.5H96.1V118.1zM96.1 95.5h34.1v0c0 1.4-1.1 2.5-2.5 2.5H96.1V95.5z" class="color89d4f2 svgShape colorfea142 color2f89fc color89e2d6"></path><rect width="12.8" height="2.5" x="134.5" y="118.1" fill="#4bb5b1" class="color89d4f2 svgShape colorfea142 color2f89fc color89e2d6"></rect><rect width="12.8" height="2.5" x="134.5" y="80.2" fill="#4bb5b1" class="color89d4f2 svgShape colorfea142 color2f89fc color89e2d6"></rect><rect width="51.1" height="2.5" x="96.1" y="125.5" fill="#4bb5b1" class="color89d4f2 svgShape colorfea142 color2f89fc color89e2d6"></rect><rect width="51.1" height="2.5" x="96.1" y="140.5" fill="#4bb5b1" class="color89d4f2 svgShape colorfea142 color2f89fc color89e2d6"></rect><rect width="32" height="2.5" x="115.3" y="133" fill="#4bb5b1" class="color89d4f2 svgShape colorfea142 color2f89fc color89e2d6"></rect><rect width="14.9" height="2.5" x="96.1" y="133" fill="#4bb5b1" class="color89d4f2 svgShape colorfea142 color2f89fc color89e2d6"></rect><rect width="38.4" height="2.5" x="108.9" y="148" fill="#4bb5b1" class="color89d4f2 svgShape colorfea142 color2f89fc color89e2d6"></rect><path fill="#40514e" d="M174.7,43.6h-62.8c-5.7,0-10.4,4.7-10.4,10.4v2.2h-0.9c-5.7,0-10.4,4.7-10.4,10.4v1				c-5.7,0.9-10.1,5.9-10.1,11.8v76.8c0,6.6,5.4,12,12,12h59.6c6.3,0,11.5-4.9,12-11.2c5.6-0.2,10.1-4.7,10.1-10.4v-2.2h0.9				c5.7,0,10.4-4.7,10.4-10.4V54C185.1,48.3,180.5,43.6,174.7,43.6z M151.8,164.1H92.2c-4.4,0-8-3.6-8-8V79.4c0-4.4,3.6-8,8-8h59.6				c4.4,0,8,3.6,8,8v76.8C159.8,160.5,156.2,164.1,151.8,164.1z M169.8,146.6c0,3.4-2.7,6.2-6.1,6.4V79.4v-1.6				c0-5.7-4.7-10.4-10.4-10.4h-1.6H94.2v-0.8c0-3.5,2.9-6.4,6.4-6.4h62.8c3.5,0,6.4,2.9,6.4,6.4V146.6z M181.1,134
				c0,3.4-2.7,6.2-6.1,6.4V65.2c0-5.7-4.7-10.4-10.4-10.4h-59.2V54c0-3.5,2.9-6.4,6.4-6.4h62.8c3.5,0,6.4,2.9,6.4,6.4V134z" class="color666 svgShape color40514e"></path><g fill="#30e3ca" class="color000 svgShape color30e3ca"><path fill="#40514e" d="M28.2,129.3h11.6V95.2H30v-6.6c5.4-1,9.1-2.4,12.5-4.5h7.9v45.2h10.1v8.7H28.2V129.3z" class="color666 svgShape color40514e"></path></g></svg></svg></svg></svg></g></svg>