<svg xmlns="http://www.w3.org/2000/svg" viewBox="0 0 284.6 284.6"><defs><style>.cls-1,.cls-4,.cls-7{fill:#f5f5f5;}.cls-2{font-size:95px;font-family:Arial-BoldMT, Arial;font-weight:700;}.cls-2,.cls-6{fill:#40514e;}.cls-3,.cls-5{fill:none;}.cls-3,.cls-4{stroke:#4cb5a6;stroke-width:3px;}.cls-3,.cls-4,.cls-5,.cls-7{stroke-miterlimit:10;}.cls-5{stroke:#40514e;}.cls-5,.cls-7{stroke-width:4px;}.cls-7{stroke:#f5f4f5;}</style></defs><g id="Capa_2" data-name="Capa 2"><g id="Capa_1-2" data-name="Capa 1"><circle class="cls-1" cx="142.3" cy="142.3" r="142.3"/><text class="cls-2" transform="translate(39.35 177.12)">3</text><rect class="cls-3" x="112.1" y="80.12" width="145.15" height="72.8" rx="11.17"/><rect class="cls-4" x="105.77" y="93.01" width="144.87" height="93.07" rx="15.44"/><path class="cls-4" d="M155.41,178.73l.07,7.34H142.84V178.9c-1.67,0-10.23.54-10.23-1.13V171.9a3,3,0,0,1,3-3h25.94a3,3,0,0,1,3,3v5.87C164.52,179.22,157.25,178.69,155.41,178.73Z"/><line class="cls-5" x1="176.99" y1="116.91" x2="237.23" y2="116.91"/><line class="cls-5" x1="176.99" y1="131.88" x2="237.23" y2="131.88"/><line class="cls-5" x1="176.99" y1="147.52" x2="237.23" y2="147.52"/><path class="cls-6" d="M149.91,132.23a14.76,14.76,0,0,0,6.83-12.5,14.93,14.93,0,1,0-23.17,12.43,19.87,19.87,0,0,0-17.69,19.76,9.25,9.25,0,0,0,.07,1.35l.14,2h50.6l.14-2c0-.43.07-.85.07-1.35A20.22,20.22,0,0,0,149.91,132.23Zm-18.76-12.5a10.66,10.66,0,1,1,10.66,10.66A10.64,10.64,0,0,1,131.15,119.73Zm-11,31.19a15.71,15.71,0,0,1,15.63-14.71h11.16a15.7,15.7,0,0,1,15.63,14.71Z"/><path class="cls-4" d="M213.24,178.37l.06,7.34H200.66v-7.17c-1.67,0-10.23.54-10.23-1.13v-5.87a3,3,0,0,1,3-3h25.94a3,3,0,0,1,3,3v5.87C222.34,178.86,215.08,178.33,213.24,178.37Z"/><line class="cls-7" x1="144.35" y1="186.07" x2="153.97" y2="186.07"/><line class="cls-7" x1="202.16" y1="185.71" x2="211.78" y2="185.71"/></g></g></svg>