<?xml version="1.0" encoding="utf-8"?>
<!-- Generator: Adobe Illustrator 26.0.1, SVG Export Plug-In . SVG Version: 6.00 Build 0)  -->
<svg version="1.1" id="SvgjsSvg1274" xmlns:svgjs="http://svgjs.com/svgjs"
	 xmlns="http://www.w3.org/2000/svg" xmlns:xlink="http://www.w3.org/1999/xlink" x="0px" y="0px" viewBox="0 0 288 288"
	 style="enable-background:new 0 0 288 288;" xml:space="preserve">
<style type="text/css">
	.st0{fill:#F5F5F5;}
	.st1{fill:none;}
	.st2{fill:#40514E;}
	.st3{font-family:'Arial-BoldMT';}
	.st4{font-size:72px;}
	.st5{fill:none;stroke:#40514E;stroke-width:3;stroke-miterlimit:10;}
	.st6{fill:#40514E;stroke:#40514E;stroke-width:3;stroke-miterlimit:10;}
	.st7{fill:#4BB5A6;stroke:#4BB5A6;stroke-miterlimit:10;}
	.st8{fill:#F5F5F5;stroke:#4BB5A6;stroke-width:2;stroke-miterlimit:10;}
	.st9{fill:none;stroke:#30E3CA;stroke-width:3;stroke-miterlimit:10;}
</style>
<g id="SvgjsG1276">
	<circle class="st0" cx="144" cy="144" r="142.3"/>
	<rect x="29.5" y="122.5" class="st1" width="73" height="104"/>
	<text transform="matrix(1 0 0 1 29.5018 174.0531)" class="st2 st3 st4">3</text>
	<line class="st5" x1="102.5" y1="197.7" x2="251.4" y2="197.1"/>
	<path class="st6" d="M232.4,197.2H136c-3.2,0-5.9-2.6-5.9-5.9v-9.1c0-3.2,2.6-5.9,5.9-5.9h96.4c3.2,0,5.9,2.6,5.9,5.9v9.1
		C238.2,194.5,235.6,197.2,232.4,197.2z"/>
	<path class="st5" d="M219.8,162.5h-60.9c-3.7,0-6.8,3-6.8,6.8v0c0,3.7-1,6.8,3,6.8l68,0.3c4.6,0,3.5-3.3,3.5-7v0
		C226.5,165.5,223.5,162.5,219.8,162.5z"/>
	<path class="st7" d="M198.9,133.5L166,145.1c-5.1,1.8-10.8-0.9-12.6-6l0,0c-1.8-5.1,0.9-10.8,6-12.6l32.9-11.6
		c5.1-1.8,10.8,0.9,12.6,6l0,0C206.7,126,204,131.7,198.9,133.5z"/>
	
		<rect x="157.5" y="93.8" transform="matrix(0.9431 -0.3325 0.3325 0.9431 -26.0465 63.0807)" class="st8" width="27.6" height="27.6"/>
	
		<rect x="111.7" y="112.3" transform="matrix(0.9431 -0.3325 0.3325 0.9431 -32.276 51.9042)" class="st7" width="47.6" height="16"/>
	<rect x="105.2" y="122" transform="matrix(0.9431 -0.3325 0.3325 0.9431 -37.0846 43.2771)" class="st7" width="5.5" height="16"/>
	<path class="st7" d="M105.3,139.5l-13.5,4.8c-3.7,0.6-7.4-2.2-8.1-3.4l-1.1-3.8c-0.2-3.1,1.1-6.1,3.9-7.9l13.5-4.8L105.3,139.5z"/>
	<line class="st9" x1="228.3" y1="128.6" x2="250.8" y2="122.5"/>
	<line class="st9" x1="230.5" y1="138.6" x2="253.6" y2="137.5"/>
	<line class="st9" x1="230.9" y1="148.6" x2="251.9" y2="152.5"/>
	<path class="st7" d="M183.1,88.7l-32.9,11.6c-5.1,1.8-10.8-0.9-12.6-6v0c-1.8-5.1,0.9-10.8,6-12.6l32.9-11.6
		c5.1-1.8,10.8,0.9,12.6,6v0C190.9,81.3,188.2,86.9,183.1,88.7z"/>
</g>
</svg>
