<svg xmlns="http://www.w3.org/2000/svg" xmlns:svgjs="http://svgjs.com/svgjs" xmlns:xlink="http://www.w3.org/1999/xlink" id="SvgjsSvg1274" x="0" y="0" version="1.1" viewBox="0 0 288 288" xml:space="preserve" style="enable-background:new 0 0 288 288"><style type="text/css">.st0{fill:#f5f5f5}.st1{fill:none}.st2{fill:#40514e}.st3{font-family:&apos;Arial-BoldMT&apos;}.st4{font-size:72px}.st5,.st6{stroke:#40514e;stroke-width:3}.st5{fill:none;stroke-miterlimit:10}.st6{fill:#40514e}.st10,.st6{stroke-miterlimit:10}.st7{fill:#4bb5a6}.st7,.st8,.st9{stroke:#4bb5a6;stroke-miterlimit:10}.st8{fill:#f5f5f5;stroke-width:2}.st9{fill:#4bb5a6;stroke-width:1}.st10{fill:none;stroke:#30e3ca;stroke-width:3}</style><g id="SvgjsG1276"><circle cx="144" cy="144" r="142.3" class="st0"/><rect width="73" height="104" x="29.5" y="122.5" class="st1"/><text class="st2 st3 st4" transform="matrix(1 0 0 1 29.5018 174.0531)">4</text><line x1="102.5" x2="251.4" y1="197.7" y2="197.1" class="st5"/><path d="M232.4,197.2H136c-3.2,0-5.9-2.6-5.9-5.9v-9.1c0-3.2,2.6-5.9,5.9-5.9h96.4c3.2,0,5.9,2.6,5.9,5.9v9.1 C238.2,194.5,235.6,197.2,232.4,197.2z" class="st6"/><path d="M219.8,162.5h-60.9c-3.7,0-6.8,3-6.8,6.8l0,0c0,3.7-1,6.8,3,6.8l68,0.3c4.6,0,3.5-3.3,3.5-7l0,0 C226.5,165.5,223.5,162.5,219.8,162.5z" class="st5"/><path d="M198.9,133.5L166,145.1c-5.1,1.8-10.8-0.9-12.6-6l0,0c-1.8-5.1,0.9-10.8,6-12.6l32.9-11.6 c5.1-1.8,10.8,0.9,12.6,6l0,0C206.7,126,204,131.7,198.9,133.5z" class="st7"/><rect width="27.6" height="27.6" x="157.5" y="93.8" class="st8" transform="matrix(0.9431 -0.3325 0.3325 0.9431 -26.0319 63.0741)"/><rect width="47.6" height="16" x="111.7" y="112.3" class="st9" transform="matrix(0.9431 -0.3325 0.3325 0.9431 -32.2913 51.9035)"/><rect width="5.5" height="16" x="105.2" y="122" class="st9" transform="matrix(0.9431 -0.3325 0.3325 0.9431 -37.0788 43.2887)"/><path d="M105.3,139.5l-13.5,4.8c-3.7,0.6-7.4-2.2-8.1-3.4l-1.1-3.8c-0.2-3.1,1.1-6.1,3.9-7.9l13.5-4.8L105.3,139.5z" class="st7"/><line x1="228.3" x2="250.8" y1="128.6" y2="122.5" class="st10"/><line x1="230.5" x2="253.6" y1="138.6" y2="137.5" class="st10"/><line x1="230.9" x2="251.9" y1="148.6" y2="152.5" class="st10"/><path d="M183.1,88.7l-32.9,11.6c-5.1,1.8-10.8-0.9-12.6-6l0,0c-1.8-5.1,0.9-10.8,6-12.6l32.9-11.6 c5.1-1.8,10.8,0.9,12.6,6l0,0C190.9,81.3,188.2,86.9,183.1,88.7z" class="st7"/></g></svg>