<svg xmlns="http://www.w3.org/2000/svg" xmlns:svgjs="http://svgjs.com/svgjs" xmlns:xlink="http://www.w3.org/1999/xlink" id="SvgjsSvg1266" x="0" y="0" version="1.1" viewBox="0 0 288 288" xml:space="preserve" style="enable-background:new 0 0 288 288"><style type="text/css">.st0{fill:#f5f5f5}.st1{fill:#40514e}.st2,.st3{fill:#30e3ca;stroke:#4bb5b1;stroke-miterlimit:13.0909}.st3{fill:#f5f5f5}</style><g id="SvgjsG1268"><circle cx="144" cy="144" r="142.3" class="st0"/><path d="M34.6,170.6l6.5-8.9c4.1,3.9,8.9,7.2,15.6,7.2c7.3,0,12.4-4.7,12.4-13c0-8.2-4.7-12.8-11.9-12.8 c-4.2,0-6.5,1-10.6,3.7l-6.4-4.2l2-34.2h37.7v11.8H54.2l-1.3,14.9c2.7-1.3,5.2-2,8.5-2c11.8,0,21.7,7.1,21.7,22.4 c0,15.7-11.7,24.7-24.7,24.7C47.3,180.3,39.8,175.8,34.6,170.6z" class="st1"/><path d="M235.3,164.1c7.6-4.8,12.6-13.4,12.6-23c0-15.2-12.3-27.5-27.5-27.5c-15.2,0-27.5,12.3-27.5,27.5 c0,9.6,4.8,17.9,12.3,22.9c-18.3,2-32.6,17.5-32.6,36.4c0,0.8,0,1.6,0.1,2.5l0.3,3.7h93.2l0.3-3.7c0-0.8,0.1-1.6,0.1-2.5 C266.3,182.1,252.9,166.9,235.3,164.1z M200.7,141.1c0-10.9,8.8-19.6,19.6-19.6c10.9,0,19.6,8.8,19.6,19.6 c0,10.9-8.8,19.6-19.6,19.6C209.5,160.7,200.7,151.8,200.7,141.1z M180.5,198.6c0.9-15.1,13.5-27.1,28.8-27.1h20.6 c15.3,0,27.9,12,28.8,27.1H180.5z" class="st1"/><path d="M135.1,202.6c7.6-4.8,12.6-13.4,12.6-23c0-15.2-12.3-27.5-27.5-27.5s-27.5,12.3-27.5,27.5 c0,9.6,4.8,17.9,12.3,22.9c-18.3,2-32.6,17.5-32.6,36.4c0,0.8,0,1.6,0.1,2.5l0.3,3.7H166l0.3-3.7c0-0.8,0.1-1.6,0.1-2.5 C166.1,220.6,152.7,205.4,135.1,202.6z M100.6,179.6c0-10.9,8.8-19.6,19.6-19.6s19.6,8.8,19.6,19.6s-8.8,19.6-19.6,19.6 S100.6,190.3,100.6,179.6z M80.3,237.1C81.2,222,93.7,210,109.1,210h20.6c15.3,0,27.9,12,28.8,27.1H80.3z" class="st1"/></g><g><path d="M134.2,107.8l55.5,1.1l14.1,12.6l0.6-13.7h6.8c4.7,0,8.5-3.8,8.5-8.5v-36c0-4.7-3.8-8.5-8.5-8.5h-76.9 c-4.7,0-8.5,3.8-8.5,8.5v36C125.7,104,129.5,107.8,134.2,107.8z" class="st2"/><path d="M134.4,105.4l55.9,1l11.5,10l0.1-10.7l7.6,0c4.4,0,7.3-3.1,7.3-7.2l0.2-33.6c0-4.1-1.7-7.5-6.1-7.5h-74.7 c-4.4,0-7.4,0.5-7.4,4.6l-0.6,34.6C128.2,100.8,130,105.4,134.4,105.4z" class="st3"/></g><g><path d="M182.4,133.3l-55.5,1.1L112.9,147l-0.6-13.7h-6.8c-4.7,0-8.5-3.8-8.5-8.5v-36c0-4.7,3.8-8.5,8.5-8.5h76.9 c4.7,0,8.5,3.8,8.5,8.5v36C190.9,129.5,187.1,133.3,182.4,133.3z" class="st2"/><path d="M182.2,130.9l-55.9,1l-11.5,10l-0.1-10.7l-7.6,0c-4.4,0-7.3-3.1-7.3-7.2l-0.2-33.6c0-4.1,1.7-7.5,6.1-7.5h74.7 c4.4,0,7.4,0.5,7.4,4.6l0.6,34.6C188.4,126.3,186.6,130.9,182.2,130.9z" class="st3"/></g><path d="M129,113.5L129,113.5c-2.8,0-5.1-2.3-5.1-5.1v0c0-2.8,2.3-5.1,5.1-5.1l0,0c2.8,0,5.1,2.3,5.1,5.1v0	C134.2,111.2,131.9,113.5,129,113.5z" class="st1"/><path d="M144.9,113.5L144.9,113.5c-2.8,0-5.1-2.3-5.1-5.1v0c0-2.8,2.3-5.1,5.1-5.1h0c2.8,0,5.1,2.3,5.1,5.1v0	C150,111.2,147.7,113.5,144.9,113.5z" class="st1"/><path d="M159,113.5L159,113.5c-2.8,0-5.1-2.3-5.1-5.1v0c0-2.8,2.3-5.1,5.1-5.1l0,0c2.8,0,5.1,2.3,5.1,5.1v0	C164.1,111.2,161.8,113.5,159,113.5z" class="st1"/></svg>