<svg xmlns="http://www.w3.org/2000/svg" xmlns:svgjs="http://svgjs.com/svgjs" xmlns:xlink="http://www.w3.org/1999/xlink" id="SvgjsSvg1266" x="0" y="0" version="1.1" viewBox="0 0 288 288" xml:space="preserve" style="enable-background:new 0 0 288 288"><style type="text/css">.st0{fill:#f5f5f5}.st1{fill:#30e3ca;stroke:#4bb5b1;stroke-width:1.3091;stroke-miterlimit:13.0909}.st2{fill:#40514e}.st3{font-family:&apos;Arial-BoldMT&apos;}.st4{font-size:90px}</style><g id="SvgjsG1268"><circle cx="144" cy="144" r="142.3" class="st0"/><path d="M131.6,113h2.4v13.9c0,1.8,1.2,3.5,2.9,4.3c1.7,0.7,3.8,0.3,5.1-1l0.1-0.1l13.9-17h59.3c5.1,0,9.3-4.2,9.3-9.3 V57.2c0-5.1-4.2-9.3-9.3-9.3h-83.5c-5.1,0-9.3,4.2-9.3,9.3v46.5C122.3,108.8,126.5,113,131.6,113z M127,57.2c0-2.6,2.1-4.6,4.6-4.6 h83.5c2.6,0,4.6,2.1,4.6,4.6v46.5c0,2.6-2.1,4.6-4.6,4.6h-60.3h-0.1c-0.3,0-0.7,0.1-0.9,0.3c-0.1,0.1-0.3,0.1-0.4,0.3 c-0.1,0.1-0.3,0.1-0.4,0.3c0,0,0,0-0.1,0.1l-14.4,17.7v-16.2c0-1.3-1-2.4-2.4-2.4h-4.6c-2.6,0-4.6-2.1-4.6-4.6V57.2H127z" class="st1"/><path d="M193,177.3c7.6-4.8,12.6-13.4,12.6-23c0-15.2-12.3-27.5-27.5-27.5c-15.2,0-27.5,12.3-27.5,27.5 c0,9.6,4.8,17.9,12.3,22.9c-18.3,2-32.6,17.5-32.6,36.4c0,0.8,0,1.6,0.1,2.5l0.3,3.7h93.2l0.3-3.7c0-0.8,0.1-1.6,0.1-2.5 C224,195.2,210.5,180,193,177.3z M158.4,154.2c0-10.9,8.8-19.6,19.6-19.6c10.9,0,19.6,8.8,19.6,19.6c0,10.9-8.8,19.6-19.6,19.6 C167.2,173.8,158.4,164.9,158.4,154.2z M138.1,211.7c0.9-15.1,13.5-27.1,28.8-27.1h20.6c15.3,0,27.9,12,28.8,27.1H138.1z" class="st2"/><text class="st2 st3 st4" transform="matrix(1 0 0 1 35.3037 184.5818)">6</text></g></svg>