<svg xmlns="http://www.w3.org/2000/svg" xmlns:svgjs="http://svgjs.com/svgjs" xmlns:xlink="http://www.w3.org/1999/xlink" id="SvgjsSvg1274" x="0" y="0" version="1.1" viewBox="0 0 288 288" xml:space="preserve" style="enable-background:new 0 0 288 288"><style type="text/css">.st0{fill:#f5f5f5}.st1{fill:#4bb5b1}.st2{fill:#40514e}.st3{fill:none}.st4{font-family:&apos;Arial-BoldMT&apos;}.st5{font-size:72px}</style><g id="SvgjsG1276"><circle cx="144" cy="144" r="142.3" class="st0"/><rect width="44.6" height="2.2" x="149.8" y="141.9" class="st1"/><rect width="44.6" height="2.2" x="149.8" y="135.4" class="st1"/><rect width="29.7" height="2.2" x="149.8" y="148.5" class="st1"/><rect width="29.7" height="2.2" x="149.8" y="128.7" class="st1"/><rect width="11.1" height="2.2" x="183.3" y="148.5" class="st1"/><rect width="11.1" height="2.2" x="183.3" y="115.3" class="st1"/><rect width="44.6" height="2.2" x="149.8" y="154.9" class="st1"/><rect width="44.6" height="2.2" x="149.8" y="168" class="st1"/><rect width="27.9" height="2.2" x="166.5" y="161.4" class="st1"/><rect width="13" height="2.2" x="149.8" y="161.4" class="st1"/><rect width="7.5" height="2.2" x="149.8" y="174.5" class="st1"/><rect width="33.5" height="2.2" x="161" y="174.5" class="st1"/><path d="M208.5,94.3h-54.9c-5.1,0-9.3,4.2-9.3,9.3v1.8c-5.1,2.4-8.8,7.6-8.8,13.6v58.3c0,8.2,6.8,15.1,15.1,15.1h43.2 c6.4,0,11.9-4.1,14-9.7h0.5c5.1,0,9.3-4.2,9.3-9.3v-69.8C217.8,98.4,213.6,94.3,208.5,94.3z M194,188.4h-43.2 c-6.2,0-11.1-5-11.1-11.1V119c0-6.2,5-11.1,11.1-11.1H194c6.2,0,11.1,5,11.1,11.1v58.3C205.1,183.4,200,188.4,194,188.4z M213.9,173.3c0,2.7-2.1,5.1-4.8,5.4v-1.3V119v-5.8c0-5.1-4.2-9.3-9.3-9.3H194h-43.2h-2.4v-0.5c0-3,2.4-5.4,5.4-5.4h54.9 c2.9,0,5.4,2.4,5.4,5.4v69.9H213.9z" class="st2"/><g><path d="M181,232.8c-1,0-2-0.8-2-1.8c0-1,0.8-2,1.8-2.1c4.3-0.3,8.5-0.8,12.7-1.7c1-0.3,2.1,0.5,2.4,1.6 c0.3,1-0.5,2.1-1.6,2.4C190.1,232,185.6,232.5,181,232.8L181,232.8z M170.6,232.8h-0.1c-4.5-0.3-8.9-0.9-13.2-2 c-1-0.3-1.7-1.3-1.4-2.4c0.3-1,1.3-1.7,2.4-1.4c4.2,0.9,8.4,1.6,12.7,1.8c1,0.1,2,1,1.8,2.1C172.4,231.8,171.5,232.8,170.6,232.8z M204.1,228.3c-0.8,0-1.6-0.5-1.8-1.3c-0.4-1,0.3-2.1,1.2-2.5c4.1-1.3,8-3,11.8-5c0.9-0.5,2.1-0.1,2.6,0.8 c0.5,0.9,0.1,2.1-0.8,2.6c-3.9,2.1-8.1,3.8-12.3,5.2C204.5,228.3,204.3,228.3,204.1,228.3z M147.5,227.9c-0.3,0-0.4,0-0.7-0.1 c-4.2-1.4-8.4-3.3-12.3-5.4c-0.9-0.5-1.3-1.7-0.8-2.6c0.5-0.9,1.7-1.3,2.6-0.8c3.8,2,7.7,3.8,11.7,5.2c1,0.4,1.6,1.4,1.2,2.5 C149.1,227.4,148.3,227.9,147.5,227.9z M225.2,217.8c-0.7,0-1.2-0.3-1.6-0.9c-0.7-0.9-0.4-2.1,0.5-2.7c3.5-2.4,6.8-5.1,9.9-8 c0.8-0.8,2.1-0.7,2.7,0.1s0.7,2.1-0.1,2.7c-3.3,3-6.8,5.9-10.5,8.4C225.9,217.7,225.6,217.8,225.2,217.8z M126.6,217.2 c-0.4,0-0.8-0.1-1.2-0.4c-3.7-2.6-7.1-5.5-10.3-8.5c-0.8-0.8-0.8-2,0-2.7s2-0.8,2.7,0c3,3,6.4,5.8,9.8,8.1c0.9,0.7,1,1.8,0.5,2.7 C127.8,216.8,127.2,217.2,126.6,217.2z M242.6,202c-0.4,0-0.9-0.1-1.3-0.5c-0.8-0.7-0.9-2-0.3-2.7c2.7-3.3,5.2-6.8,7.5-10.3 c0.5-0.9,1.8-1.2,2.7-0.7c0.9,0.5,1.2,1.8,0.7,2.7c-2.4,3.8-5,7.5-7.9,10.9C243.6,201.7,243.1,202,242.6,202z M109.4,201.1 c-0.5,0-1.2-0.3-1.6-0.8c-2.9-3.4-5.4-7.2-7.7-11c-0.5-0.9-0.3-2.1,0.7-2.7c0.9-0.5,2.1-0.3,2.7,0.7c2.2,3.7,4.6,7.2,7.3,10.5 c0.7,0.8,0.5,2.1-0.3,2.7C110.2,200.9,109.8,201.1,109.4,201.1z M255.1,182.1c-0.3,0-0.5,0-0.8-0.1c-1-0.4-1.4-1.6-0.9-2.6 c1.7-3.9,3.3-8,4.3-12c0.3-1,1.3-1.7,2.4-1.3c1,0.3,1.7,1.3,1.3,2.4c-1.2,4.3-2.7,8.5-4.6,12.6 C256.6,181.7,255.8,182.1,255.1,182.1z M97.1,181c-0.8,0-1.4-0.4-1.8-1.2c-1.8-4.1-3.3-8.4-4.5-12.7c-0.3-1,0.4-2.1,1.4-2.4 c1-0.3,2.1,0.4,2.4,1.4c1,4.1,2.5,8.1,4.2,12c0.4,1,0,2.1-1,2.6C97.7,180.9,97.4,181,97.1,181z M261.8,159.6c-0.1,0-0.3,0-0.3,0 c-1-0.1-1.8-1.2-1.7-2.2c0.7-4.2,0.9-8.5,0.9-12.8v-0.3c0-1,0.9-2,2-2s2,0.9,2,2v0.3c0,4.5-0.4,8.9-1,13.4 C263.5,158.8,262.7,159.6,261.8,159.6z M90.7,158.4c-0.9,0-1.8-0.7-2-1.7c-0.5-4.1-0.8-8.1-0.8-12.2c0-0.4,0-0.8,0-1.2 c0-1,0.9-2,2-2l0,0c1,0,2,0.9,2,2c0,0.4,0,0.8,0,1.2c0,3.9,0.3,7.7,0.8,11.7c0.1,1-0.7,2.1-1.7,2.2 C91,158.4,90.9,158.4,90.7,158.4z M262.1,135.8c-0.9,0-1.8-0.8-2-1.7c-0.5-4.2-1.3-8.5-2.5-12.6c-0.3-1,0.3-2.1,1.3-2.5 c1-0.3,2.1,0.3,2.5,1.3c1.2,4.3,2.1,8.6,2.6,13.1c0.1,1-0.7,2.1-1.7,2.2C262.2,135.8,262.2,135.8,262.1,135.8z M90.7,134.8 c-0.1,0-0.1,0-0.3,0c-1-0.1-1.8-1.2-1.7-2.2c0.7-4.5,1.6-8.8,2.7-13.1c0.3-1,1.4-1.6,2.5-1.3c1,0.3,1.6,1.4,1.3,2.5 c-1.2,4.1-2.1,8.2-2.6,12.6C92.6,134.2,91.8,134.8,90.7,134.8z M256.1,113.1c-0.8,0-1.4-0.4-1.8-1.2c-1.7-3.9-3.7-7.7-5.9-11.4 c-0.5-0.9-0.3-2.1,0.7-2.7c0.9-0.5,2.1-0.3,2.7,0.7c2.4,3.8,4.3,7.9,6.2,11.9c0.4,1,0,2.1-1,2.6 C256.6,113,256.3,113.1,256.1,113.1z M97,112.2c-0.3,0-0.5,0-0.8-0.1c-1-0.4-1.4-1.6-1-2.6c1.8-4.1,3.9-8.1,6.3-11.9 c0.5-0.9,1.8-1.2,2.7-0.7c0.9,0.5,1.2,1.8,0.7,2.7c-2.2,3.7-4.3,7.5-6,11.4C98.6,111.7,97.8,112.2,97,112.2z M244.1,92.8 c-0.5,0-1.2-0.3-1.6-0.8c-2.6-3.3-5.6-6.5-8.6-9.4c-0.8-0.8-0.8-2-0.1-2.7c0.8-0.8,2-0.8,2.7-0.1c3.3,3,6.3,6.3,9,9.8 c0.7,0.8,0.5,2.1-0.3,2.7C244.9,92.7,244.5,92.8,244.1,92.8z M109.3,92c-0.4,0-0.9-0.1-1.2-0.4c-0.8-0.7-0.9-2-0.3-2.7 c2.7-3.4,5.9-6.7,9.2-9.7c0.8-0.8,2.1-0.7,2.7,0.1c0.8,0.8,0.7,2.1-0.1,2.7c-3.1,2.9-6.2,6-8.8,9.3C110.4,91.8,109.8,92,109.3,92z M227.1,76.6c-0.4,0-0.8-0.1-1.2-0.4c-3.4-2.5-7.1-4.7-10.9-6.7c-0.9-0.5-1.3-1.7-0.8-2.6c0.5-0.9,1.7-1.3,2.6-0.8 c3.9,2.1,7.9,4.5,11.4,7.1c0.9,0.7,1,1.8,0.4,2.7C228.3,76.3,227.8,76.6,227.1,76.6z M126.5,75.9c-0.7,0-1.2-0.3-1.6-0.8 c-0.7-0.9-0.4-2.1,0.5-2.7c3.7-2.6,7.5-4.8,11.5-6.9c0.9-0.5,2.1-0.1,2.6,0.9c0.5,0.9,0.1,2.1-0.9,2.6c-3.8,2-7.5,4.2-11,6.5 C127.2,75.8,126.9,75.9,126.5,75.9z M206.3,65.5c-0.3,0-0.4,0-0.7-0.1c-3.9-1.4-8.1-2.6-12.3-3.5c-1-0.3-1.7-1.3-1.6-2.4 c0.3-1,1.3-1.7,2.4-1.6c4.3,0.9,8.8,2.1,12.8,3.7c1,0.4,1.6,1.6,1.2,2.5C207.9,64.9,207.2,65.5,206.3,65.5z M147.3,65.1 c-0.8,0-1.6-0.5-1.8-1.3c-0.4-1,0.1-2.1,1.2-2.5c4.2-1.4,8.5-2.7,13-3.5c1-0.3,2.1,0.5,2.4,1.6s-0.5,2.1-1.6,2.4 c-4.2,0.8-8.4,2-12.3,3.4C147.7,65.1,147.5,65.1,147.3,65.1z M183.4,60.3h-0.1c-2.2-0.1-4.6-0.3-6.8-0.3l0,0c-2,0-3.9,0.1-5.9,0.3 c-1,0.1-2-0.8-2.1-1.8c-0.1-1,0.8-2,1.8-2.1c2.1-0.1,4.2-0.3,6.2-0.3c2.4,0,4.8,0.1,7.2,0.3c1,0.1,1.8,1,1.8,2.1 C185.2,59.6,184.5,60.3,183.4,60.3z" class="st1"/></g><g><path d="M175.4,38.1c-9.4,0-17.1,7.7-17.1,17.1s7.7,17.1,17.1,17.1c9.4,0,17.1-7.7,17.1-17.1S185,38.1,175.4,38.1 L175.4,38.1z M175.4,69.3c-7.7,0-14-6.3-14-14s6.3-14,14-14c7.7,0,14,6.3,14,14S183.1,69.3,175.4,69.3L175.4,69.3z" class="st0"/><path d="M175.4,69.3c-7.7,0-14-6.3-14-14s6.3-14,14-14c7.7,0,14,6.3,14,14S183.1,69.3,175.4,69.3L175.4,69.3z" class="st2"/><path d="M178.3,51.4c-0.8-0.8-1.6-1-2.5-1c-1,0-1.6,0.4-1.6,1.3c0,2,5.9,1.8,5.9,6.2c0,2.2-1.2,3.9-3.5,4.5v2.4h-2.4 v-2.2c-1.3-0.1-2.9-0.8-4.1-1.7l1.6-2.4c1.2,0.9,2.1,1.3,3.1,1.3c1.2,0,1.7-0.5,1.7-1.4c0-2.1-5.9-2.2-5.9-6.3 c0-2.2,1.3-3.8,3.4-4.2v-2.4h2.4v2.4c1.4,0.3,2.5,0.9,3.4,1.8L178.3,51.4z" class="st0"/></g><g><path d="M175.4,214.7c-9.4,0-17.1,7.7-17.1,17.1c0,9.4,7.7,17.1,17.1,17.1c9.4,0,17.1-7.7,17.1-17.1 C192.6,222.4,185,214.7,175.4,214.7L175.4,214.7z M175.4,245.8c-7.7,0-14-6.3-14-14c0-7.7,6.3-14,14-14c7.7,0,14,6.3,14,14 C189.4,239.6,183.1,245.8,175.4,245.8L175.4,245.8z" class="st0"/><path d="M175.4,245.8c-7.7,0-14-6.3-14-14c0-7.7,6.3-14,14-14c7.7,0,14,6.3,14,14 C189.4,239.6,183.1,245.8,175.4,245.8L175.4,245.8z" class="st2"/><path d="M178.3,228c-0.8-0.8-1.6-1-2.5-1c-1,0-1.6,0.4-1.6,1.3c0,2,5.9,1.8,5.9,6.2c0,2.2-1.2,3.9-3.5,4.5v2.4h-2.4 V239c-1.3-0.1-2.9-0.8-4.1-1.7l1.6-2.4c1.2,0.9,2.1,1.3,3.1,1.3c1.2,0,1.7-0.5,1.7-1.4c0-2.1-5.9-2.2-5.9-6.3 c0-2.2,1.3-3.8,3.4-4.2V222h2.4v2.4c1.4,0.3,2.5,0.9,3.4,1.8L178.3,228z" class="st0"/></g><g><path d="M249.4,83.3c-9.4,0-17.1,7.7-17.1,17.1s7.7,17.1,17.1,17.1c9.4,0,17.1-7.7,17.1-17.1S258.8,83.3,249.4,83.3 L249.4,83.3z M249.4,114.4c-7.7,0-14-6.3-14-14s6.3-14,14-14s14,6.3,14,14S257.1,114.4,249.4,114.4L249.4,114.4z" class="st0"/><path d="M249.4,114.4c-7.7,0-14-6.3-14-14s6.3-14,14-14s14,6.3,14,14S257.1,114.4,249.4,114.4L249.4,114.4z" class="st2"/><path d="M252.3,96.6c-0.8-0.8-1.6-1-2.5-1c-1,0-1.6,0.4-1.6,1.3c0,2,5.9,1.8,5.9,6.2c0,2.2-1.2,3.9-3.5,4.5v2.4h-2.4 v-2.2c-1.3-0.1-2.9-0.8-4.1-1.7l1.6-2.4c1.2,0.9,2.1,1.3,3.1,1.3c1.2,0,1.7-0.5,1.7-1.4c0-2.1-5.9-2.2-5.9-6.3 c0-2.2,1.3-3.8,3.4-4.2v-2.4h2.4v2.4c1.4,0.3,2.5,0.9,3.4,1.8L252.3,96.6z" class="st0"/></g><g><path d="M104.3,83.3c-9.4,0-17.1,7.7-17.1,17.1s7.7,17.1,17.1,17.1s17.1-7.7,17.1-17.1S113.8,83.3,104.3,83.3 L104.3,83.3z M104.3,114.4c-7.7,0-14-6.3-14-14s6.3-14,14-14c7.7,0,14,6.3,14,14S112.1,114.4,104.3,114.4L104.3,114.4z" class="st0"/><path d="M104.3,114.4c-7.7,0-14-6.3-14-14s6.3-14,14-14c7.7,0,14,6.3,14,14S112.1,114.4,104.3,114.4L104.3,114.4z" class="st2"/><path d="M107.1,96.6c-0.8-0.7-1.4-1-2.4-1c-1,0-1.6,0.4-1.6,1.3c0,2,5.9,1.8,5.9,6.2c0,2.2-1.2,3.9-3.5,4.5v2.4h-2.4 v-2.2c-1.3-0.1-2.9-0.8-4.1-1.7l1.7-2.5c1.2,0.9,2.1,1.3,3.1,1.3c1.2,0,1.7-0.5,1.7-1.4c0-2.1-5.9-2.2-5.9-6.3 c0-2.2,1.3-3.8,3.4-4.2v-2.4h2.4v2.4c1.4,0.3,2.5,0.9,3.4,1.8L107.1,96.6z" class="st0"/></g><g><path d="M247.3,179c-9.4,0-17.1,7.7-17.1,17.1c0,9.4,7.7,17.1,17.1,17.1s17.1-7.7,17.1-17.1 C264.4,186.5,256.8,179,247.3,179L247.3,179z M247.3,210.1c-7.7,0-14-6.3-14-14s6.3-14,14-14c7.7,0,14,6.3,14,14 C261.4,203.8,255.1,210.1,247.3,210.1L247.3,210.1z" class="st0"/><path d="M247.3,210.1c-7.7,0-14-6.3-14-14s6.3-14,14-14c7.7,0,14,6.3,14,14C261.4,203.8,255.1,210.1,247.3,210.1 L247.3,210.1z" class="st2"/><path d="M250.2,192.2c-0.8-0.8-1.6-1-2.5-1c-1,0-1.6,0.4-1.6,1.3c0,2,5.9,1.8,5.9,6.2c0,2.2-1.2,3.9-3.5,4.3v2.4h-2.4 V203c-1.3-0.1-2.9-0.8-4.1-1.7l1.6-2.4c1.2,0.9,2.1,1.3,3.1,1.3c1.2,0,1.7-0.5,1.7-1.4c0-2.1-5.9-2.2-5.9-6.3 c0-2.2,1.3-3.8,3.4-4.2V186h2.4v2.4c1.4,0.3,2.5,0.9,3.4,1.8L250.2,192.2z" class="st0"/></g><g><path d="M102.5,179c-9.4,0-17.1,7.7-17.1,17.1c0,9.4,7.7,17.1,17.1,17.1s17.1-7.7,17.1-17.1 C119.7,186.5,111.9,179,102.5,179L102.5,179z M102.5,210.1c-7.7,0-14-6.3-14-14s6.3-14,14-14c7.7,0,14,6.3,14,14 S110.2,210.1,102.5,210.1L102.5,210.1z" class="st0"/><path d="M102.5,210.1c-7.7,0-14-6.3-14-14s6.3-14,14-14c7.7,0,14,6.3,14,14S110.2,210.1,102.5,210.1L102.5,210.1z" class="st2"/><path d="M105.3,192.2c-0.8-0.8-1.6-1-2.5-1c-1,0-1.6,0.4-1.6,1.3c0,2,5.9,1.8,5.9,6.2c0,2.2-1.2,3.9-3.5,4.3v2.4h-2.4 V203c-1.3-0.1-2.9-0.8-4.1-1.7l1.6-2.4c1.2,0.9,2.1,1.3,3.1,1.3c1.2,0,1.7-0.5,1.7-1.4c0-2.1-5.9-2.2-5.9-6.3 c0-2.2,1.3-3.8,3.4-4.2V186h2.4v2.4c1.4,0.3,2.5,0.9,3.4,1.8L105.3,192.2z" class="st0"/></g><rect width="73" height="104" x="29.5" y="122.5" class="st3"/><text class="st2 st4 st5" transform="matrix(1 0 0 1 29.5018 174.053)">7</text></g></svg>