<svg xmlns="http://www.w3.org/2000/svg" viewBox="0 0 284.6 284.6"><defs><style>.cls-1,.cls-4{fill:#f5f5f5;}.cls-2,.cls-3,.cls-5{fill:none;}.cls-2,.cls-4,.cls-6{stroke:#40514e;}.cls-2,.cls-3,.cls-4,.cls-5,.cls-6{stroke-miterlimit:10;}.cls-2,.cls-3{stroke-width:3px;}.cls-3,.cls-5{stroke:#4cb5a6;}.cls-5{stroke-width:2px;}.cls-6,.cls-7{fill:#40514e;}.cls-7{font-size:95px;font-family:Arial-BoldMT, Arial;font-weight:700;}</style></defs><g id="Capa_2" data-name="Capa 2"><g id="Capa_1-2" data-name="Capa 1"><circle class="cls-1" cx="142.3" cy="142.3" r="142.3"/><rect class="cls-2" x="122.53" y="65.22" width="118.61" height="162.59" rx="9.4"/><line class="cls-3" x1="159.89" y1="95.67" x2="222.95" y2="95.67"/><rect class="cls-4" x="136.28" y="82.55" width="15.45" height="15.45"/><rect class="cls-4" x="136.28" y="107.36" width="15.45" height="15.45"/><rect class="cls-4" x="136.28" y="134.57" width="15.45" height="15.45"/><line class="cls-3" x1="159.89" y1="120.79" x2="222.95" y2="120.79"/><line class="cls-3" x1="159.89" y1="147.26" x2="222.95" y2="147.26"/><rect class="cls-4" x="136.28" y="160.51" width="15.45" height="15.45"/><line class="cls-3" x1="159.89" y1="173.21" x2="222.95" y2="173.21"/><rect class="cls-4" x="136.28" y="186.46" width="15.45" height="15.45"/><line class="cls-3" x1="159.89" y1="199.15" x2="222.95" y2="199.15"/><polyline class="cls-5" points="136.28 86.99 142.7 95.67 157.14 77.04"/><polyline class="cls-5" points="136.28 112.11 142.7 120.79 157.14 102.16"/><polyline class="cls-5" points="136.28 139.58 142.7 148.26 157.14 129.63"/><rect class="cls-6" x="157.14" y="60.85" width="54.86" height="8.73"/><text class="cls-7" transform="translate(39.35 177.12)">8</text></g></g></svg>